/* XPM */
static const char *xpm_[] = {
/* columns rows colors chars-per-pixel */
"32 32 226 2 ",
"   c #1E0617",
".  c #1E040D",
"X  c #230404",
"o  c #250B0C",
"O  c #2A0C0D",
"+  c #290609",
"@  c #330C0E",
"#  c #360A09",
"$  c #2B190B",
"%  c #2B140E",
"&  c #33140D",
"*  c #250517",
"=  c #2A0514",
"-  c #240A15",
";  c #2B0D14",
":  c #260C1C",
">  c #2C0D1C",
",  c #250618",
"<  c #320C14",
"1  c #320C1C",
"2  c #390C17",
"3  c #261115",
"4  c #2C1213",
"5  c #25101C",
"6  c #2C121C",
"7  c #311214",
"8  c #3E1114",
"9  c #33131B",
"0  c #39181A",
"q  c #1E0C22",
"w  c #2A0721",
"e  c #260E23",
"r  c #2B0C22",
"t  c #260E28",
"y  c #210422",
"u  c #310B23",
"i  c #370826",
"p  c #241124",
"a  c #2C1223",
"s  c #2D1329",
"d  c #2E1A26",
"f  c #331324",
"g  c #3D1323",
"h  c #3D1A23",
"j  c #36182A",
"k  c #311637",
"l  c #461100",
"z  c #400F12",
"x  c #421A1A",
"c  c #441717",
"v  c #410B09",
"b  c #472318",
"n  c #552718",
"m  c #4C321D",
"M  c #57311C",
"N  c #471B22",
"B  c #461C27",
"V  c #451F36",
"C  c #4A2926",
"Z  c #5B2B25",
"A  c #522429",
"S  c #5B2C2E",
"D  c #562928",
"F  c #4C3826",
"G  c #5A372C",
"H  c #4C2634",
"J  c #562A36",
"K  c #543B34",
"L  c #5C3D33",
"P  c #593937",
"I  c #66332C",
"U  c #753A29",
"Y  c #602F32",
"T  c #673936",
"R  c #7C3F31",
"E  c #733D37",
"W  c #6E3114",
"Q  c #5A4235",
"!  c #5D433C",
"~  c #574531",
"^  c #5E4728",
"/  c #634433",
"(  c #61433B",
")  c #6D4237",
"_  c #75433B",
"`  c #7A443C",
"'  c #7E4B3D",
"]  c #7E4432",
"[  c #725B3C",
"{  c #5B3E42",
"}  c #5B4643",
"|  c #594947",
" . c #614443",
".. c #624C42",
"X. c #784542",
"o. c #6C504C",
"O. c #694D54",
"+. c #8D481F",
"@. c #8A4425",
"#. c #85452C",
"$. c #8A452B",
"%. c #8A4A2F",
"&. c #86492D",
"*. c #944A26",
"=. c #9C532B",
"-. c #844532",
";. c #8A4633",
":. c #854B34",
">. c #8B4B34",
",. c #8A473A",
"<. c #834B3A",
"1. c #8C4D3A",
"2. c #82453A",
"3. c #914D34",
"4. c #8D513A",
"5. c #83523A",
"6. c #95543A",
"7. c #A25A2A",
"8. c #A5583A",
"9. c #B9713B",
"0. c #AF693D",
"q. c #C06E3F",
"w. c #CA773D",
"e. c #844B42",
"r. c #894C44",
"t. c #864A45",
"y. c #8B5040",
"u. c #955544",
"i. c #A35C40",
"p. c #906F4E",
"a. c #956B5C",
"s. c #A96648",
"d. c #B36D4C",
"f. c #BA6B41",
"g. c #B7754C",
"h. c #A77558",
"j. c #B77759",
"k. c #AC6A5A",
"l. c #967C65",
"z. c #BA7B67",
"x. c #A36860",
"c. c #C67845",
"v. c #C57A5A",
"b. c #C47D69",
"n. c #DE973F",
"m. c #99835C",
"M. c #B5805E",
"N. c #9F8260",
"B. c #B89A7A",
"V. c #AC8C70",
"C. c #CF874D",
"Z. c #D28A4C",
"A. c #D58546",
"S. c #DD9B45",
"D. c #DB994C",
"F. c #C48355",
"G. c #DE9C53",
"H. c #D69C5D",
"J. c #D38554",
"K. c #E08D4B",
"L. c #E49544",
"P. c #E59B44",
"I. c #E39D4C",
"U. c #E99949",
"Y. c #E49C53",
"T. c #E99A59",
"R. c #F29C53",
"E. c #DAA457",
"W. c #E6A04B",
"Q. c #EBA14E",
"!. c #EAA152",
"~. c #E6A459",
"^. c #F2A256",
"/. c #CC9A68",
"(. c #D09272",
"). c #E49B6A",
"_. c #DAA768",
"`. c #E2A67A",
"'. c #EDB873",
"]. c #F4C37E",
"[. c #AF9680",
"{. c #B69E86",
"}. c #CCB496",
"|. c #F5BD82",
" X c #D5BAA3",
".X c #D9C299",
"XX c #FCCC87",
"oX c #F3C395",
"OX c #FBD79A",
"+X c #E9C799",
"@X c #FFE29E",
"#X c #E5C8A5",
"$X c #FFCCA0",
"%X c #EDDBA8",
"&X c #F7DDA3",
"*X c #F2DCAB",
"=X c #FBDEAC",
"-X c #FCDAA2",
";X c #E6CEB9",
":X c #EED5B6",
">X c #EBDCB4",
",X c #EDDAB9",
"<X c #F2DDB4",
"1X c #FADFB1",
"2X c #F4DDBC",
"3X c #FADDBC",
"4X c #F2D5B7",
"5X c #FFE2A6",
"6X c #F6E0AC",
"7X c #FBE2AB",
"8X c #FFEBAB",
"9X c #EEE1BE",
"0X c #FBE2B2",
"qX c #FCE9B4",
"wX c #FCE4BC",
"eX c #F7E6B9",
"rX c #ECCFC7",
"tX c #EADCC1",
"yX c #F7DDC3",
"uX c #F3E4C3",
"iX c #FBE6C4",
"pX c #FFEAC1",
"aX c #FBE4CC",
"sX c #FBE9CC",
"dX c #FFF0C3",
"fX c #FFF2C8",
/* pixels */
"i u * ; 4 O 9 ; a   a f O ; 0 o o % % $ $ $ 4 O ; 9 7 9 * r y k ",
"1 g { ....( ! K | | } ! L ( ..! } ! Q F F ~ Q Q Q L K (  .O.j   ",
"O o.;XuX,X>X2XsXuX9X>X<XwXwX2XyXaX;XaXaX,XiXuX2X2X3X3XyXyXrXO.; ",
"o ..tXeXeXqX%X6X6X%X%X7X7X*X*XwX XV. XiX<XfXpX%X0X=X=X1X3XyX! o ",
"a | tX>X*XqX=X0X7X7X8X5X-X0XwX;XL & / l.B.}.#XdX0X7X&X&X1XyX! 0 ",
"5 | aXeX7X5X-X7X5X@X@XOXOXwX#Xa.D C C b m m [ #X*X7XOX&X1X2XK 4 ",
": K :X=XOXXX'._.H.E.E.E.|.$X(.E N J h ; 4 X F {.:XfX7X7X1X2XP 6 ",
":  .wX5XXX~.E.G.D.D.S.G.H.j.4.I J B ; f j 3 4 C [.:X*X7X0X2X! ; ",
"o / =X].E.S.D.I.W.W.n.!.C.=.;.e.A g > u 6 - ; 9 C }.dX7XqX2XK 3 ",
"O / OX'.S.P.I.I.P.P.U.Y.9.*.;.e.D g 1 u f a : 5 X K m.*X*X2XK 6 ",
"4 / oX~.S.P.Q.I.P.L.^.Z.=.$.,.t.T N 1 1 f a r : 6 o ^ wX*XiX! 6 ",
"4 G `.G.P.P.!.I.I.I.T.9.@.;.,.r.X.Y N 1 > : r r r O m .X*XwX( ; ",
"& M /.D.Q.P.W.I.W.Y.Z.=.$.1.-.r.e.E S B 9 ; r r r h b N.wX4XP ; ",
"& n F.A.^.L.W.I.!.G.9.+.>.1.-.4.<.2._ T A h f f H H b p.wX#XS 1 ",
"@ n g.A.R.L.!.Y.Y.Z.7.@.1.,.:.:.%.:.2.` ) G A B H C M V.+XB.C 2 ",
"# n d.c.T.U.^.Y.T.c.*.$.,.-.1.#.>.;.:.<.' _ T S S I 5.oX/.h.b 8 ",
"8 Z j.g.A.K.A.T.).7.@.;.;.,.;.>.>.>.>.>.<.<.' ' R 6.`.`.g.M.n # ",
"# Z z.d.c.w.w.A.J.=.@.>.>.1.1.1.;.-.#.#.#.:.<.:.6.d.).F.g.j.n + ",
"O b a.4.d.f.c.q.f.*.$.>.;.1.1.>.>.>.%.%.%.&.;.;.i.v.(.8.h.h.D 7 ",
"6 ; T n s.s.v.v.8.@.>.>.-.>.;.#.#.;.%.6.6.%.>.3.6.v.d.W 5.) 0 5 ",
"d . 0 # E R k.b.u.#.1.1.-.>.;.#.$.>.&.>.;.U ;.3.j.z.1.l Z 0 o : ",
"a - 9 + z v E x.e.U <.e.2.1.1.;.%.3.-.1.] U 1.u.z.k.I # x 9 - j ",
"e r > 1 = X N T S x I _ ` r.1.;.#.>.] <.E Z _ r.` Z z O + > , f ",
"r a * j u 1 > 1 0 X x T _ e.e.2.;.y.' X.D + 8 c # + < h . a , r ",
"> r r r r r r > ; - o @ x S X.t.e.E S h ; ; ; < < < > r e r r > ",
"> > r r r r r r a a > ; < 2 8 c @ < ; : : > ; 1 ; > r e t e r r ",
"> > > r r r r r r r > > > ; ; ; ; ; a s s a 6 ; ; > r e t t e e ",
"> > > > r r r r r r r r r a a a p p p p e e > ; ; > r e e e e p ",
"> > > > > > > r r r : : : w r e e q y e w : : ; > > r r e e p p ",
"r > > > > ; ; > : : : r r r w e p s s s s a : : 5 : r r r : 5 5 ",
"r r > > ; 3 3 3 6 a a f r r w r , : r r r r e e p p e > > ; ; 3 ",
"u r > > 3 3 3 3 5 : : : w w u r a > > > > r p p p p e > ; ; ; 4 "
};
