/* XPM */
static char *_3801fcaa91843dc875e7a2b18691458qfvHvoUfNWzWkjCD[] = {
/* columns rows colors chars-per-pixel */
"32 32 217 2 ",
"   c #250C0F",
".  c #240B11",
"X  c #260D10",
"o  c #270E11",
"O  c #250C12",
"+  c #270C13",
"@  c #260A16",
"#  c #270E14",
"$  c #290B13",
"%  c #2A0A15",
"&  c #290916",
"*  c #2A0A17",
"=  c #280D14",
"-  c #2D0C15",
";  c #2C0C17",
":  c #230819",
">  c #2D0B19",
",  c #2D0B1B",
"<  c #2D0D18",
"1  c #330F1B",
"2  c #2D1417",
"3  c #2E1417",
"4  c #2E1518",
"5  c #2F1518",
"6  c #35111F",
"7  c #2B0B22",
"8  c #290C22",
"9  c #2A0D23",
"0  c #291023",
"q  c #301623",
"w  c #321624",
"e  c #321527",
"r  c #341527",
"t  c #331926",
"y  c #371631",
"u  c #391833",
"i  c #4C242D",
"p  c #4E2F2D",
"a  c #562B22",
"s  c #5D2D21",
"d  c #5E2E22",
"f  c #5F2F23",
"g  c #582D24",
"h  c #592E25",
"j  c #522B2E",
"k  c #5E2B28",
"l  c #5B2E28",
"z  c #5C2F29",
"x  c #5F2F2B",
"c  c #4F302E",
"v  c #573128",
"b  c #50312F",
"n  c #59332A",
"m  c #5D302A",
"M  c #5A342B",
"N  c #4F2C30",
"B  c #4B2A35",
"V  c #482D36",
"C  c #4B2D37",
"Z  c #492E37",
"A  c #4F2E37",
"S  c #532B33",
"D  c #542B33",
"F  c #502D31",
"G  c #552C32",
"H  c #542D32",
"J  c #513331",
"K  c #513333",
"L  c #543032",
"P  c #523432",
"I  c #543435",
"U  c #593632",
"Y  c #5A3733",
"T  c #553238",
"R  c #573239",
"E  c #513438",
"W  c #523539",
"Q  c #58333A",
"!  c #623228",
"~  c #63342A",
"^  c #64342A",
"/  c #60302C",
"(  c #62322E",
")  c #64312D",
"_  c #64332E",
"`  c #63342E",
"'  c #7D4B1A",
"]  c #7D4A1B",
"[  c #7D4F1E",
"{  c #7D4E20",
"}  c #7E482E",
"|  c #6F532B",
" . c #765528",
".. c #7F5628",
"X. c #70453C",
"o. c #71463D",
"O. c #7D4C3D",
"+. c #7E4D3E",
"@. c #7F4E3F",
"#. c #775A30",
"$. c #7D5A34",
"%. c #854627",
"&. c #844428",
"*. c #82502D",
"=. c #84522F",
"-. c #804630",
";. c #874A37",
":. c #834F37",
">. c #804839",
",. c #81493A",
"<. c #824A3B",
"1. c #874A38",
"2. c #824D3B",
"3. c #814C3C",
"4. c #824D3D",
"5. c #834E3E",
"6. c #854D3E",
"7. c #864E3F",
"8. c #884938",
"9. c #894A39",
"0. c #884B39",
"q. c #924F34",
"w. c #85513B",
"e. c #8D533F",
"r. c #935036",
"t. c #90523B",
"y. c #91533C",
"u. c #8B693B",
"i. c #966C3C",
"p. c #9B6D3C",
"a. c #855040",
"s. c #8E5440",
"d. c #A05F49",
"f. c #8D6E42",
"g. c #8A6D45",
"h. c #9F6746",
"j. c #967B50",
"k. c #A1604A",
"l. c #A66549",
"z. c #A7664A",
"x. c #A16948",
"c. c #A77343",
"v. c #A87243",
"b. c #B07849",
"n. c #AC7557",
"m. c #A37953",
"M. c #AE7A55",
"N. c #AE755A",
"B. c #B77754",
"V. c #B57954",
"C. c #BB7957",
"Z. c #BA7A57",
"A. c #BD7F68",
"S. c #B48059",
"D. c #B78059",
"F. c #BE8069",
"G. c #BF816A",
"H. c #EBBD8C",
"J. c #ECBC8C",
"K. c #F4BC8D",
"L. c #ECAC90",
"P. c #EEAE92",
"I. c #EFAF93",
"U. c #EBBC90",
"Y. c #FABF93",
"T. c #DED29E",
"R. c #E7C49A",
"E. c #F3C393",
"W. c #F6C290",
"Q. c #F7C290",
"!. c #F2C493",
"~. c #F3C594",
"^. c #F4C494",
"/. c #F7C594",
"(. c #F4C29F",
"). c #F7C39E",
"_. c #F1CB9A",
"`. c #F0D79F",
"'. c #E7CFA1",
"]. c #E9CEA1",
"[. c #EBCFA0",
"{. c #F9C1A0",
"}. c #EED9A4",
"|. c #EED8A6",
" X c #F2D2A3",
".X c #F3D3A4",
"XX c #F6D8A4",
"oX c #F6D8A6",
"OX c #FCD8A4",
"+X c #FDD8A4",
"@X c #F4DDAB",
"#X c #FADFA8",
"$X c #FFDCA8",
"%X c #EFE2AE",
"&X c #ECE5AF",
"*X c #EEE4AF",
"=X c #FAE0A7",
"-X c #F1E1AE",
";X c #F5E1AC",
":X c #F0E5AF",
">X c #F9E0A8",
",X c #FBE0A9",
"<X c #FFE2AB",
"1X c #FFE1AC",
"2X c #F7E1B0",
"3X c #F4E7B0",
"4X c #F4E7B2",
"5X c #FCE2B1",
"6X c #FFE3B2",
"7X c #FFE4B0",
"8X c #FFE5B1",
"9X c #FFE3B4",
"0X c #FFE5B5",
"qX c #FFE7B7",
"wX c #FCEBB7",
"eX c #FFE2BB",
"rX c #FFEDBB",
/* pixels */
"y 8 e O   3 $ * , 6 1 - < @ : 0 0 : @ < - 1 6 , * O 5 O . q 7 u ",
"7 e C W J c N Q i S G j L T A B B A T L j G D i T F b P W C r 8 ",
"e C I Y n g z ( z ` ^ f f ! ) k k ) ! f f ~ ) z ( m g M Y J C t ",
"O W Y o.+.5.7.<.5.2.w.:.} -.;.0.0.;.-.} :.w.2.5.<.7.a.+.o.Y W # ",
"  J n +.e.t.d.F.N.n.M.D.D.V.B.Z.Z.B.V.D.D.M.n.N.A.d.y.s.+.v J O ",
"3 c g 5.t.q.l.P.{.).U.H./.W.K.Y.Y.K.W./.J.U.).{.P.l.r.y.5.a p 5 ",
"$ N z 7.d.l.&.x.).eX9XOX1X<X$X8X8X$X<X1XOX9XeX).h.%.l.k.7.l N = ",
"* Q ( <.F.P.x.=.m.R.9XXX>X=X`.>X>X`.#X>XXX9XR.m.*.x.P.F.<.( Q - ",
", i z 5.N.{.).m.$.g.].qX|.;X4X:X:X4X;X|.qX].g.$.m.).{.N.5.z i , ",
"6 S ) 2.n.).eXR.g.| j.'.2XwXT.&X&XT.wX2X'.j.| g.R.eX).n.2.` D 6 ",
"1 G ^ w.M.U.9X9X].j.#.f.].5XrX%X-XrX5X].f.#.j.].9X9XU.M.w.~ G 1 ",
"- j f :.D.H.OXXXqX'.f. .u. XqX@X@XqX Xu. .f.'.qXXXOXJ.D.:.f j - ",
"< L f } D./.1X>X|.2X].u...i._.5X5X_.i...u.].2X|.>X1X/.D.} f L < ",
"@ T ! -.V.W.<X=X;XwX5X.Xi.[ p.~./.p.{ i..X5XwX;X#X<XW.V.-.! T @ ",
": A ) ;.B.K.$X`.4XT.rXqX_.p.] c.v.] p._.qXrXT.4X`.$XK.B.;.) A : ",
"0 B k 1.Z.Y.8X>X:X&X-X@X5X!.v.b.b.c.E.5X@X%X&X:X>X8XY.Z.0.k B 0 ",
"0 B k 1.Z.Y.8X>X:X&X-X@X5X!.v.b.b.c.E.5X@X%X&X:X>X8XY.Z.0.k B 0 ",
": A ) ;.B.K.$X`.4XT.rXqX_.p.] c.v.] p._.qXrXT.4X`.$XK.B.;.) A : ",
"@ T ! -.V.W.<X=X;XwX5X.Xi.[ p.~./.p.{ i..X5XwX;X#X<XW.V.-.! T @ ",
"< L f } D./.1X>X|.2X].u...i._.5X5X_.i...u.].2X|.>X1X/.D.} f L < ",
"- j f :.D.H.OXXXqX'.f. .u. XqX@X@XqX Xu. .f.'.qXXXOXJ.D.:.f j - ",
"1 G ^ w.M.U.9X9X].j.#.f.].5XrX%X-XrX5X].f.#.j.].9X9XU.M.w.~ G 1 ",
"6 S ) 2.n.).eXR.g.| j.'.2XwXT.&X&XT.wX2X'.j.| g.R.eX).n.2.` D 6 ",
", i z 5.N.{.).m.$.g.].qX|.;X4X:X:X4X;X|.qX].g.$.m.).{.N.5.z i , ",
"* Q ( <.F.P.x.=.m.R.9XXX>X=X`.>X>X`.#X>XXX9XR.m.*.x.P.F.<.( Q - ",
"$ N z 7.d.l.&.x.).eX9XOX1X<X$X8X8X$X<X1XOX9XeX).h.%.l.k.7.l N = ",
"3 c g 5.t.q.l.P.{.).U.H./.W.K.Y.Y.K.W./.J.U.).{.P.l.r.y.5.a p 5 ",
"  J n +.e.t.d.F.N.n.M.D.D.V.B.Z.Z.B.V.D.D.M.n.N.A.d.y.s.+.v J O ",
"O W Y o.+.5.7.<.5.2.w.:.} -.;.0.0.;.-.} :.w.2.5.<.7.a.+.o.Y W # ",
"e C I Y n g z ( z ` ^ f f ! ) k k ) ! f f ~ ) z ( m g M Y J C t ",
"7 e C W J c N Q i S G j L T A B B A T L j G D i T F b P W C r 8 ",
"y 8 e O   3 $ * , 6 1 - < @ : 0 0 : @ < - 1 6 , * O 5 O . q 7 u "
};
