/* XPM */
static char *_4db175c06514aeeb85259803fa41554gF6WQs9Yko5aOzQN[] = {
/* columns rows colors chars-per-pixel */
"32 32 229 2 ",
"   c #1F0E11",
".  c #1F0D09",
"X  c #230D0C",
"o  c #290B0C",
"O  c #270506",
"+  c #29110E",
"@  c #30110E",
"#  c #250C13",
"$  c #2A0C14",
"%  c #250B1B",
"&  c #2A0D1A",
"*  c #2C0515",
"=  c #320C13",
"-  c #3E0B13",
";  c #370617",
":  c #2C1214",
">  c #26131C",
",  c #2B121C",
"<  c #281316",
"1  c #331215",
"2  c #32141D",
"3  c #37151A",
"4  c #310407",
"5  c #240B24",
"6  c #2A0E23",
"7  c #240A2B",
"8  c #250723",
"9  c #300F24",
"0  c #2C1222",
"q  c #2C132A",
"w  c #341523",
"e  c #341A22",
"r  c #371829",
"t  c #351933",
"y  c #260A33",
"u  c #38202D",
"i  c #491E1D",
"p  c #591E1A",
"a  c #4E1605",
"s  c #4D2319",
"d  c #542514",
"f  c #53231E",
"g  c #5C2919",
"h  c #61270F",
"j  c #602C14",
"k  c #783A18",
"l  c #6E3D1C",
"z  c #481E27",
"x  c #4C1D31",
"c  c #541B22",
"v  c #432525",
"b  c #4C2524",
"n  c #45242B",
"m  c #4A252C",
"M  c #4B2A2D",
"N  c #4E2B26",
"B  c #522524",
"V  c #532923",
"C  c #5A2C23",
"Z  c #52252C",
"A  c #532C2D",
"S  c #5B2927",
"D  c #452633",
"F  c #4C2434",
"G  c #482938",
"H  c #502433",
"J  c #512C32",
"K  c #51263D",
"L  c #533E35",
"P  c #5B352A",
"I  c #6B3928",
"U  c #633732",
"Y  c #6B302C",
"T  c #7A441C",
"R  c #5B453C",
"E  c #5D4A3C",
"W  c #584238",
"Q  c #7F4C2A",
"!  c #7C4024",
"~  c #62453B",
"^  c #694639",
"/  c #774434",
"(  c #5A3E42",
")  c #5C4642",
"_  c #5F444A",
"`  c #614543",
"'  c #634D46",
"]  c #684B48",
"[  c #714D46",
"{  c #645040",
"}  c #853E20",
"|  c #83411E",
" . c #834529",
".. c #894828",
"X. c #93472B",
"o. c #875029",
"O. c #93532B",
"+. c #8B4A32",
"@. c #854B32",
"#. c #914C32",
"$. c #8D5837",
"%. c #935335",
"&. c #9A5936",
"*. c #A85A3A",
"=. c #A46031",
"-. c #B66A3A",
";. c #BD713D",
":. c #CC6E2E",
">. c #CB6C34",
",. c #C46D3C",
"<. c #CB6D3D",
"1. c #C76F30",
"2. c #CD723D",
"3. c #CC7234",
"4. c #D1733C",
"5. c #D7793F",
"6. c #925749",
"7. c #9E6957",
"8. c #A46344",
"9. c #AE6340",
"0. c #AB6B45",
"q. c #B66D43",
"w. c #B76B48",
"e. c #A9794C",
"r. c #BA7846",
"t. c #B86C58",
"y. c #A97554",
"u. c #B57253",
"i. c #BB7556",
"p. c #AA6C53",
"a. c #C46D43",
"s. c #CA6E44",
"d. c #C16D4A",
"f. c #C96C4A",
"g. c #C57443",
"h. c #CC7244",
"j. c #C4714B",
"k. c #CB744B",
"l. c #CB7849",
"z. c #C17947",
"x. c #D27344",
"c. c #D47649",
"v. c #D1794A",
"b. c #C37553",
"n. c #C77854",
"m. c #D07854",
"M. c #C07965",
"N. c #B78757",
"B. c #B88760",
"V. c #C8864C",
"C. c #CE9C4A",
"Z. c #DC9E4C",
"A. c #D89A47",
"S. c #C68B57",
"D. c #D18758",
"F. c #DE9C54",
"G. c #DA9759",
"H. c #CF9953",
"J. c #E29C44",
"K. c #E4974B",
"L. c #E59B4B",
"P. c #EC9B4D",
"I. c #E89647",
"U. c #E29D52",
"Y. c #EB9D52",
"T. c #F09E52",
"R. c #DBA14C",
"E. c #D7A149",
"W. c #CCA152",
"Q. c #D4A653",
"!. c #D9A55A",
"~. c #E7A24A",
"^. c #EAA252",
"/. c #E6A255",
"(. c #CD986B",
"). c #CC8F72",
"_. c #E79D60",
"`. c #DAA767",
"'. c #DFB970",
"]. c #D1AE70",
"[. c #E9BB7B",
"{. c #E3AE69",
"}. c #ECC47B",
"|. c #DDBC8D",
" X c #D6B197",
".X c #ECB493",
"XX c #EDC787",
"oX c #F4C687",
"OX c #F7D488",
"+X c #EEC49A",
"@X c #F4CA9A",
"#X c #EEDA9F",
"$X c #EBD79D",
"%X c #FCDD9C",
"&X c #F7DB96",
"*X c #FAE19E",
"=X c #F4E49F",
"-X c #D8C4AA",
";X c #EEDBA1",
":X c #ECD9A8",
">X c #F3DCA2",
",X c #FEDBA5",
"<X c #F3DEAB",
"1X c #FDDCAD",
"2X c #FBD4A7",
"3X c #EFDCB2",
"4X c #F3DEB5",
"5X c #F1DDBB",
"6X c #FFD5B3",
"7X c #ECE1A6",
"8X c #F4E3A5",
"9X c #FCE3A4",
"0X c #F5E3AB",
"qX c #FBE4AC",
"wX c #FDE8AE",
"eX c #F7EAAC",
"rX c #F6E2B2",
"tX c #F5E4B1",
"yX c #F5E3B5",
"uX c #F4E2B3",
"iX c #FBE4B3",
"pX c #FDEAB2",
"aX c #F6E3B9",
"sX c #FAE3B9",
"dX c #FCECB9",
"fX c #F2DCC2",
"gX c #FADCC2",
"hX c #FAE3C3",
"jX c #F7E3C5",
/* pixels */
"7 % # X X X 0 % , : : : : > > > 0 0 > > , , , 6 8 q % # # % 7 y ",
"5 u ' { E R ) ( ` ~ E E R ) ) ) ) ) ) ) R R ) _ ( _ ) ' ' ' t 7 ",
"# ' -X5XaXhXfXfX5X5X4X4X5X5X5X5X4X4X4X4X4X4X5X5XfXfXhXaX5X-X] # ",
"o { 5XtX<XiX4XsXrX0X0X0X0XrXrXrX0X8X0X0X0X0XrXyXaX<XpX8XtX5X] X ",
"o ~ sX<X;XqX<XrX0X8X8X8X8X0X0X0X8X8X0X0X0XrXrXyXyX<XqX#X<XhX` & ",
"o ~ hXiXqXpX<X:X0X8X=X=X8X0X0X0X8X8X0X0X0X0XuXuX:X<XwXqXiXhX` % ",
"w ` fX4X<X<XiXrXtX0X0X0X0XrXrXrX0X0XtXtXtXrXrXyXyXtX8X8X<X5X` 2 ",
"% ( fXsXrX<XrX4X0X0X0X0X0XrX4X4X0X0X0X0X0X0X0X0X<XrX;X0XtX5XR # ",
"# W 5XrX0X0XtX0X7XeXeX0XtX:X:XiXrX0X0XqX9X9X9X8X<X<XwXqXiXjXW $ ",
"< E 5XiXqX#X0XpX0XeX7X;X0XiXrXiX;X>X9X*X&X&X*X9XiXqXqX<XrXhXR < ",
". E yXwXwX*X>X0X8X8X7X0XeXtX0X0XpXwX9X&XOXOXOX&X,X,X1X<XyXjX) > ",
"X { 3X$X%X9XqXqXwX0X8X0X0X7X;X>X9XOX'.!.Q.Q.Q.!.[.XX,XqXsXfXW > ",
"  R 4XiXwX,X@X+X2X1XqX;X$X0XqX%X}.{.Q.C.A.E.R.Z.!.`.oX%XiX4XL , ",
"> L 5XdX@XN.$.Q y.|.dXwX;XqX9XXXW.E.R.R.A.J.L.^.U.A.!.}.%X4XW : ",
"e R gX1X(.&. .Q l e.|.,X9X9X&X].C.Z./.^.L.I.P.Y.Y.A.A.!.XXiX~ : ",
"# ` hX+Xe.O.%.o.%.T $.].,X9XXX!.!.U.L.K.K.P.P.P.P.K.L.R.[.1X^ $ ",
"O [ 6X(.r.z.q.q.&.O.T o.N.oXoXF.L.I.P.Y.K.K.T.I.I.P.J.A.!.2XP = ",
"@ ^ .Xn.;.g.g.g.j.9.O. .o.0.D._.Y.P.P.L.L.J.K.P.I.P.~.Z.`.1X^ 1 ",
"1 U ).q.,.2.c.s.m.d.*.+.!  .&.q.G.Y.U.J.~.J.J.^.^.U.Z.H.].6X[ O ",
"$ S i.a.4.4.x.a.f.j.w.&.+.+.+...-.V.U.U.~.J.Z./.G.V.r.e.B. X[ = ",
"o C u.g.4.>.4.s.s.m.b.*.#. .+.#...=.V.F.F.R.F.S.k g g d s U 3 & ",
"$ C u.g.3.:.2.k.k.f.f.j.9.#...#.+.| O.r.G.{.S.o.d i B b i b w r ",
"= V u.g.1.3.,.l.j.a.a.l.k.q.*.X.%. .k O.u.B.$.p Z F F F J M w * ",
"* f i.g.3.5.-.g.a.l.h.,.,.l.d.*.} %.%.@.@./ C z x K K z m v r & ",
"; S n.v.>.4.g.j.s.h.x.2.h.k.k.j.w.8.$./ I C B m F H H J A v e & ",
"; p t.h.>.4.s.s.k.s.<.<.,.a.j.b.i.p.6./ P b b b F m b B N v e % ",
"- p w.h.4.5.x.x.c.<.<.v.D.b.0.8.@.I U Z z n m m Z b f f N v r 5 ",
"a S i.l.4.4.,.<.x.s.g.w.8. .h a g B Z F D G G J J Z B B N n t 7 ",
"4 C u.n.l.g.j.m.d.n.i.&.I d s f z z F G G G D n J J Z Z J D t 7 ",
"3 A 7.u.u.u.u.M.i.t.6.I b b N M m D G G G G M M m n n m D t q 7 ",
"% 2 A V C f f S Y c - = w r r 2 e 2 0 0 , : 1 1 w r r e 2 2 0 6 ",
"q % 3 O 1 = = ; ; ; * 9 q 5 6 0     # : : : : : & & & & # & & , "
};
