/* XPM */
static char *d5a9b081d5c24781e502d5b300720bdfKlcH5sWzQaz5GNbT[] = {
/* columns rows colors chars-per-pixel */
"32 32 219 2 ",
"   c #1E0C1D",
".  c #1A0218",
"X  c #1F1119",
"o  c #2B0300",
"O  c #260B06",
"+  c #2C030D",
"@  c #250D0A",
"#  c #2A0B0D",
"$  c #24070D",
"%  c #300304",
"&  c #340A03",
"*  c #3B0C03",
"=  c #330C0B",
"-  c #3A0C0D",
";  c #2B1409",
":  c #240C14",
">  c #2C0C13",
",  c #29061D",
"<  c #240B1D",
"1  c #2B0C1B",
"2  c #250618",
"3  c #340B13",
"4  c #320D1B",
"5  c #3B0B17",
"6  c #231114",
"7  c #2A1216",
"8  c #271019",
"9  c #2C121B",
"0  c #321314",
"q  c #3C1615",
"w  c #33121C",
"e  c #3A151A",
"r  c #371B1A",
"t  c #36130D",
"y  c #2A0720",
"u  c #260C23",
"i  c #2C0C22",
"p  c #2A0C2A",
"a  c #260B2E",
"s  c #320B22",
"d  c #251323",
"f  c #2C1223",
"g  c #2C1429",
"h  c #2D1C2C",
"j  c #331222",
"k  c #371822",
"l  c #3C1E25",
"z  c #33122B",
"x  c #3C1A2B",
"c  c #381828",
"v  c #3A1F30",
"b  c #3C202A",
"n  c #430F06",
"m  c #461607",
"M  c #481A15",
"N  c #420E1A",
"B  c #47251D",
"V  c #54241D",
"C  c #5A2719",
"Z  c #6E371B",
"A  c #451D24",
"S  c #451827",
"D  c #45252A",
"F  c #4B262B",
"G  c #4D292B",
"H  c #482726",
"J  c #572A25",
"K  c #4B2533",
"L  c #4C2B36",
"P  c #4B2738",
"I  c #492A3A",
"U  c #402432",
"Y  c #572D34",
"T  c #4E3231",
"R  c #5C3D3B",
"E  c #573739",
"W  c #662D2B",
"Q  c #683428",
"!  c #643A3B",
"~  c #5A4233",
"^  c #5D443D",
"/  c #5A4637",
"(  c #61443C",
")  c #654A3D",
"_  c #63513B",
"`  c #593E42",
"'  c #603D44",
"]  c #5C4641",
"[  c #5C4946",
"{  c #5A4844",
"}  c #614443",
"|  c #654A44",
" . c #694E44",
".. c #664C4C",
"X. c #744747",
"o. c #795353",
"O. c #6E4F4E",
"+. c #7A6452",
"@. c #8E501D",
"#. c #914F1D",
"$. c #934C20",
"%. c #8D553C",
"&. c #8D4D30",
"*. c #A75C35",
"=. c #99643D",
"-. c #AC6330",
";. c #BA6D3A",
":. c #BA773D",
">. c #CA6D3D",
",. c #C66E3B",
"<. c #CC723C",
"1. c #C2733B",
"2. c #D1743B",
"3. c #995B4B",
"4. c #BA6E47",
"5. c #BE7945",
"6. c #BA7447",
"7. c #A76C55",
"8. c #B76F57",
"9. c #AE705B",
"0. c #B37559",
"q. c #B77457",
"w. c #AC704B",
"e. c #8C6B68",
"r. c #B37561",
"t. c #8F6D51",
"y. c #C57343",
"u. c #C4724B",
"i. c #CD7542",
"p. c #D57643",
"a. c #C77A53",
"s. c #C76E46",
"d. c #DD983E",
"f. c #DC963E",
"g. c #BF8255",
"h. c #DB974C",
"j. c #DC9B4C",
"k. c #D89845",
"l. c #C78A5A",
"z. c #DC9D54",
"x. c #D49D5B",
"c. c #D5995A",
"v. c #C6854D",
"b. c #E39C44",
"n. c #E59E4B",
"m. c #E49D57",
"M. c #DCA24D",
"N. c #CCA05F",
"B. c #DDA654",
"V. c #E7A243",
"C. c #EAA244",
"Z. c #E6A14D",
"A. c #E2A253",
"S. c #E6A45B",
"D. c #F2AB59",
"F. c #CD8F60",
"G. c #CB9265",
"H. c #D99C65",
"J. c #E09E62",
"K. c #DBA864",
"L. c #DFB068",
"P. c #D0A676",
"I. c #E3A867",
"U. c #E7B36B",
"Y. c #EAB978",
"T. c #EBB479",
"R. c #F0C47C",
"E. c #B99B89",
"W. c #C1AC8F",
"Q. c #C0B08F",
"!. c #CEAA8B",
"~. c #EFBA86",
"^. c #D3BAA5",
"/. c #F5CA8B",
"(. c #F8C988",
"). c #FCD28D",
"_. c #FED88F",
"`. c #EFDD9F",
"'. c #FED393",
"]. c #FED69B",
"[. c #FEDD9D",
"{. c #F0D191",
"}. c #EFC996",
"|. c #FFE09D",
" X c #DAC5A8",
".X c #F0C6A0",
"XX c #EDDBA3",
"oX c #EAD7A5",
"OX c #FFD6A4",
"+X c #F3DEA5",
"@X c #FEDCA4",
"#X c #F3DEAC",
"$X c #FBDEAB",
"%X c #FBD5AE",
"&X c #EDDDBB",
"*X c #EAD2B8",
"=X c #F3DDB5",
"-X c #FCDDB3",
";X c #F3DDBB",
":X c #FBDCBA",
">X c #EFE0A9",
",X c #ECE1A5",
"<X c #F4E2A5",
"1X c #FCE1A5",
"2X c #F4E3AB",
"3X c #FCE3AC",
"4X c #FDEAAE",
"5X c #F2EAAC",
"6X c #EFE0BC",
"7X c #F5E3B2",
"8X c #FAE4B3",
"9X c #FCE9B3",
"0X c #F3E2BB",
"qX c #FBE4BB",
"wX c #FBEBBC",
"eX c #EEDDC2",
"rX c #FCDEC2",
"tX c #F3D7C3",
"yX c #F8E3C2",
/* pixels */
"u < > # > > j < < < 1 1 < : 6 6 1 1 7 6 X X 6 7 @ 0 # > # : u a ",
"< b |  .) ( } ` [ [ } } } ^ / ~ } } ( ^ [ [ { / ~ ( ( |  ...v u ",
": |  X;XqXqX;X&XyX;X;X;X:X:XqXqXrXrX:X=X;XeXeX6X&X;XyXrX;X X..: ",
"@  .;X8X+X4X<X7X>X2X3X$XOXOX[.@XOX$X@X1X#X=X7X9X7X#XqX=XqX;X .@ ",
"> | rX#XXX2X,X2X+X3X3X@X/.Y.U.U.T.Y.(._.1X3X2X+X2X+X8XoX#X0X) @ ",
"# ( yX9X3X4X<XXX3X@X'.Y.I.z.h.z.z.z.B.U.).1X1X<X`.<X9X3X8XqX/ @ ",
"0 ( ;X#X+X<X2X3X3X).U.z.h.j.Z.A.z.j.k.M.U.(.[.4X2X2X<X#X#X;X^ 9 ",
"O ~ =X8X2XXX2X+X].Y.A.k.n.Z.Z.k.h.j.b.k.j.I./.3X<X2XXX2X8X;X^ : ",
"; / =X7X2X2X2X@X'.A.d.C.d.D.k.S.z.h.V.V.f.U.Y.[.<X2X<X2X2X;X^ 9 ",
"; / &X7X2X2X3X@XR.A.d.C.n.h.:.l.H.S.b.C.b.j.L.|.<X2X<X2X2X=X^ 9 ",
"7 ] eX0X7X2X$XOXU.A.b.Z.m.@.m n w.I.b.V.C.k.K.[.<X2X<X2X2X=X^ 9 ",
"9 ] eX0X7X2X3X@XK.A.b.m.I.Z & % C g.m.d.b.j.B.'.3X2X2X2X2X;X] 9 ",
"9 ] &X7X2X<X1X[.I.A.n.m.F.C 0 0 o %.I.j.n.A.x.].$X7X2X7X7X;X] 9 ",
"9 ] ;X7X5X<X1X[.U.z.S.J.=.* $ : + Q c.A.n.j.x.1X$X7X7X7X7X;X] 9 ",
"9 ] ;X7X5X<X3X@X'.x.c.F.Z o < d j M 6.A.n.j.U.1X$X7X2X2X2X=X^ 9 ",
"4 } ;X2X5X<X3XOXG.@.&.w.m # g   1 = =.x.j.B._.[.3X7X2X2X2X=X^ 7 ",
"s } 0X5X<X1X].~.#.$.&.Q - 5 1 i , e m P.N.R.[.@X$XXX2X<XoX;X^ 1 ",
"z ` 6X5X,X3X].c.-.*.3.W 3 4 1 , i 4 t t.}.{.4X1X#X9XXX2XwX;X( > ",
"z ` &X2X2X3X~.6.5.4.9.V 3 1 i i p y > B -X+X4X1X9X9X>X2XqX;X^ # ",
"i ..&X2X9X}.l.;.y.6.r.M 3 4 j i p u f O E.-X<X<XXXoXwX XW.^.E 0 ",
"< [ 0X9XOXH.4.y.y.6.7.* = 1 s i u u f 7 ~ qX#X2X9XwXQ._ r T 1 j ",
"f E qX3XT.5.y.i.y.6.%.& # 1 , , f u u c O ^.8X8XoXyX+.H D l c i ",
"9 R -X/.v.;.p.>.y.q.Q & > 1 , i f u < c @ +.;X8XqXW.H l E P x , ",
":  .%XK.:.,.p.>.u.7.V # 8 9 u z 1 < u i r ; *X;XtXo.G L D P s s ",
"1 O..Xl.1.<.<.s.8.3.> < h g g u 2 f g i w #  .tXE.R H F G G w 4 ",
"1 ! !.5.1.<.<.u.8.X.j < d   < 1 j 1 i i 9 $ B e.} e A F G G 5 3 ",
"3 W G.:.<.2.p.a.8.V w < f : k w e > 1 1 w > > D F A Y G G F 3 > ",
"N W l.5.i.,.,.4.r.n + 1 k > R F 3 e w > > > > l K K K A F G 4 1 ",
"- J 0.a.a.u.u.a.%.* + Y R q X.M ! o.' x k > > b K K K F Y L j f ",
"S Y 7.0.q.8.0.r.M - k O.O.q ! % o.e.O.I U 9 : w K P P K P b i g ",
"y j J J J V V B e k 1 I D > S e A F c z z < 1 9 w k j 1 9 8 < d ",
"p < > # = = q # 9 f . g 9 9 4 s 3 > , z p 2 9 7 > 9 4 1 1 9 d   "
};
