/* XPM */
static char *a948375a1ace4182c3eb8fc6f0995c91pOIKOHtNvRs5ZIhQ[] = {
/* columns rows colors chars-per-pixel */
"32 32 222 2 ",
"   c #1E0A13",
".  c #1E101F",
"X  c #2E0302",
"o  c #2C0C0C",
"O  c #27050B",
"+  c #350A03",
"@  c #32070C",
"#  c #330D0D",
"$  c #3B0A07",
"%  c #2D110C",
"&  c #3A1103",
"*  c #3E120C",
"=  c #341009",
"-  c #250513",
";  c #290716",
":  c #250C14",
">  c #2C0C15",
",  c #24061A",
"<  c #2D071A",
"1  c #240C1D",
"2  c #2B0C1C",
"3  c #330D13",
"4  c #330C1B",
"5  c #390F1B",
"6  c #3A0D17",
"7  c #2B1113",
"8  c #25121C",
"9  c #2C121C",
"0  c #241117",
"q  c #321114",
"w  c #3D1214",
"e  c #32131C",
"r  c #3C131C",
"t  c #37191D",
"y  c #240C22",
"u  c #2C0D24",
"i  c #2B0B2A",
"p  c #330D22",
"a  c #2B1223",
"s  c #2A1229",
"d  c #261326",
"f  c #331323",
"g  c #3A1626",
"h  c #36172A",
"j  c #2F1230",
"k  c #3F2229",
"l  c #410805",
"z  c #521200",
"x  c #461D1E",
"c  c #4E1D0F",
"v  c #4C221C",
"b  c #4A2517",
"n  c #552215",
"m  c #5B2613",
"M  c #56211B",
"N  c #56291A",
"B  c #5D2C1B",
"V  c #5B381C",
"C  c #643B1B",
"Z  c #7E3C1A",
"A  c #441E25",
"S  c #4D2523",
"D  c #44242B",
"F  c #4C242C",
"G  c #4D2A2D",
"H  c #462626",
"J  c #522523",
"K  c #592C23",
"L  c #532A2B",
"P  c #582726",
"I  c #4B2433",
"U  c #4B2A33",
"Y  c #4B263A",
"T  c #4D2939",
"R  c #462634",
"E  c #522C32",
"W  c #5E3D32",
"Q  c #5B3333",
"!  c #5A3626",
"~  c #622F2A",
"^  c #6E3422",
"/  c #64382B",
"(  c #723826",
")  c #653C37",
"_  c #5F473D",
"`  c #6D4A2A",
"'  c #7B4726",
"]  c #62433B",
"[  c #65463A",
"{  c #7D4634",
"}  c #73413A",
"|  c #7D4A3C",
" . c #7C4739",
".. c #725037",
"X. c #664446",
"o. c #7C4A44",
"O. c #744742",
"+. c #7E5245",
"@. c #88482A",
"#. c #94472E",
"$. c #92482C",
"%. c #8F512C",
"&. c #8C4735",
"*. c #834B35",
"=. c #854C3C",
"-. c #8B4B3C",
";. c #864735",
":. c #934731",
">. c #8A543A",
",. c #90563E",
"<. c #B96C39",
"1. c #A56734",
"2. c #CD6F3C",
"3. c #C4733B",
"4. c #CB723D",
"5. c #C87237",
"6. c #834C42",
"7. c #894F44",
"8. c #864F48",
"9. c #845143",
"0. c #8B5846",
"q. c #955845",
"w. c #A26548",
"e. c #BE734B",
"r. c #BC784B",
"t. c #B8784A",
"y. c #AF6C5B",
"u. c #B77355",
"i. c #B97452",
"p. c #B7765C",
"a. c #BD7A5B",
"s. c #B97953",
"d. c #A5735C",
"f. c #8F6660",
"g. c #AB7966",
"h. c #AD796C",
"j. c #B37865",
"k. c #B0786A",
"l. c #B67969",
"z. c #B27E71",
"x. c #AA7471",
"c. c #C16E45",
"v. c #C57442",
"b. c #CA7243",
"n. c #C2734B",
"m. c #C67E43",
"M. c #D07141",
"N. c #D57E42",
"B. c #DA7C42",
"V. c #C67653",
"C. c #CF813F",
"Z. c #D2813F",
"A. c #BB8251",
"S. c #AE816E",
"D. c #B6876B",
"F. c #AA8072",
"G. c #BC8F70",
"H. c #CD8142",
"J. c #CF8348",
"K. c #C88D4B",
"L. c #D18243",
"P. c #CE914D",
"I. c #D7964D",
"U. c #C8885B",
"Y. c #D48E57",
"T. c #C99358",
"R. c #DD9E53",
"E. c #D4995A",
"W. c #E4994E",
"Q. c #E49B53",
"!. c #EE9853",
"~. c #E49A56",
"^. c #F39652",
"/. c #DBA25D",
"(. c #DAA154",
"). c #E3A358",
"_. c #CA9A66",
"`. c #D49D66",
"'. c #D79761",
"]. c #C19473",
"[. c #D9A468",
"{. c #DEB37E",
"}. c #CCA27A",
"|. c #EBBE78",
" X c #EAA468",
".X c #E9C27E",
"XX c #F2C37B",
"oX c #BDA389",
"OX c #CBB398",
"+X c #D8B690",
"@X c #EBBE81",
"#X c #F0C380",
"$X c #E7C697",
"%X c #F2C796",
"&X c #FCDC9C",
"*X c #FAD99E",
"=X c #E4D59A",
"-X c #FCE59F",
";X c #ECC1A1",
":X c #ECDDA7",
">X c #FFD6A5",
",X c #F7DDA1",
"<X c #FDDCA4",
"1X c #F2DCAB",
"2X c #FEDAAA",
"3X c #F8D4A8",
"4X c #FCDCB3",
"5X c #F4D7B6",
"6X c #EDE2AD",
"7X c #EAE1A6",
"8X c #FDE2A2",
"9X c #F6E4AC",
"0X c #FBE3AD",
"qX c #FBE5A9",
"wX c #EEE3B7",
"eX c #FEE4B3",
"rX c #FDE9B4",
"tX c #F4E3BD",
"yX c #FDE5BB",
"uX c #FFEDB9",
"iX c #E8CAC0",
"pX c #FDE4C5",
/* pixels */
"y 1 a 2 4 g 2 2 : : 0 8 y u 2 2 5 O > : 7 % O # e ; 2 u h 2 - > ",
"9 f k t r A x x ] ] ] ] X.] ) ) ] W ] _ [ _ W ] ] X.X.- , 1 2 f ",
"3 S O.+.9.9.{ { >X>X>X2X2X2X<X<X2X4XyXtXwXtXpXpX5XpXiXD 9 1 u , ",
"X v } =.*.;.@.@.[.[././.E.R.R.(..X,XqXrX:X6X9X1X3X4X5X% - 1 f u ",
"# J o.9.=.-.@.%.'.E.P.P.P.I.I.(.@X<X,XqX=X:XqX<X%X%X;X& e 2 u u ",
"5 F O.o.6.6.{ *.s.t.t.t.A.U.E.`.%X4X=XuX9X9XqX8XT.A.D.X e 1 2 u ",
"y 2 f 3 3 r 6 w + + + + + + & & X # b oX:X1X<X<XT.t.j.$ f u u a ",
"s y a : 2 f < < 3 3 3 2 2 2 ; ; h ; o oXpXeX<X<XY.i.y.l < y d d ",
"d d a   a 2 2 f e 2 2 a y s s y s a O OX5XeX<X<XY.n.l.$ 2 y y y ",
"d 8 a   9 2 - > 3 o o > - : 7 : 9 9 % oX1X<X[.E.m.<.u.l @ f d s ",
", : t 7 H S x M B m m m n B C V ! ) [ OXeXrX[.).L.3.e.z $ w - > ",
"2 f G G X.o.o.7.p.i.i.s.s.U._._.%X5X5XyXeX*XK.~.H.<.e.Z ( ) w q ",
"2 f G S } 6.=.&.V.c.v.v.v.J.R./.@X2XyX2X2X>X'. XY.r.U.u.p.k.J * ",
"p g E L O.7.-.:.V.b.4.4.5.Z.W.).|.&X0X1XeX0X[.1.w.>.,.q.w.z.M + ",
"2 e F S } 8.-.:.V.b.b.4.3.L.Q.).XX8X6X6XuX<X_.z & + @ * P x.J # ",
"u g G S } 7.-.$.n.c.b.4.3.H.Q.).|.-X7XwXuX3X}.+ % e 2 6 M x.L o ",
"u f F J } =.&.$.e.v.3.3.3.H.Q.R..X&X:XrX+XD.d.* 0 1 1 3 M h.S 3 ",
"u f G J } =.&.$.e.v.3.3.3.C.Q.R..X8X9X2X].0.9.X 8 . 1 3 n h.S 3 ",
"u f G J } =.&.$.n.b.b.b.4.N.!.Q.|.8X0X0XD.{  .+ 8 . 1 3 n g.S # ",
"u f F J } =.&.#.n.b.b.b.2.N.!.~.#X&XqXeX].=.6.w 9 1 2 3 n k.J # ",
"u f F J } =.&.#.n.b.b.M.2.B.^.Q.XX&X*X0X].=. .$ 9 1 2 6 n k.J # ",
"u f F S } =.&.#.n.b.b.M.2.B.^.W.XX&X8XeX].*. .$ 9 y 2 6 n k.J 3 ",
"u f F S } =.&.#.e.n.v.b.4.N.!.W.|.&X8XeX].>.9.* 2 y u 6 M k.J 3 ",
"u f F S } 6.=.&.i.n.n.n.v.J.~.R.#X8X<X2XG.=.| + 2 y u 6 M h.J 3 ",
"u f D Q } o.6.-.j.p.u.i.a.U.'.`.{.$X$X+XS.0.} # : a p 5 M z.L # ",
"2 f A F L Q ~ ~ ( ^ ^ ^ ^ ( ' ' C ` ` ../ K K @ 9 u p 6 n h.S # ",
"f g D G L F F J P P P P P J N N b N b S v x J 3 f y p 3 n g.b % ",
"2 f D G G F F F F F F I I I S S L L S G G S S O f 1 p 3 N S.S o ",
"u f D U U U T T I I I I Y Y I F F F D T E E F q a y p 3 K z.E > ",
"a h k D R R R Y T T T Y Y Y U G T Y Y I I F H t 1 u p < v f.U 2 ",
"y 2 9 e e f f f f t f f f e q q e p p e 4 3 7 > 1 s u 4 w ) h i ",
"y u 9 9 9 9 2 2 > > 2 e e > o o > 4 4 e 4 > o 9 1 j i p @ r , i "
};
